<svg xmlns="http://www.w3.org/2000/svg" xmlns:xlink="http://www.w3.org/1999/xlink" viewBox="0 0 215.11 236.75"><defs><style>.cls-1{fill:url(#linear-gradient);}.cls-2{fill:#fff;}</style><linearGradient id="linear-gradient" x1="5" y1="229.74" x2="206" y2="11.49" gradientUnits="userSpaceOnUse"><stop offset="0" stop-color="#3c59f0"/><stop offset="0.08" stop-color="#465af1"/><stop offset="0.71" stop-color="#9666fb"/><stop offset="1" stop-color="#b66aff"/></linearGradient></defs><g id="Layer_2" data-name="Layer 2"><g id="Layer_1-2" data-name="Layer 1"><rect class="cls-1" width="215.11" height="236.75"/><path class="cls-2" d="M111.36,130.41a20.55,20.55,0,0,1-7.21,0c-10.21-2.87-25.27-2.5-30-1L74,133.61l1.82-.2s.76,14.19,6.63,16.79,14.44,1.62,17.36-1.59c3.06-3.36,3.19-3.43,5.46-10.73,0,0,.89-3.66,2.51-3.66s2.51,3.66,2.51,3.66c2.26,7.3,2.12,7.32,5.45,10.73,3,3.1,11.49,4.19,17.36,1.59S139,133.41,139,133.41a8.27,8.27,0,0,0,1.3.21c.37-2.26.58-4.22.58-4.22C135.92,127.84,121.19,127.65,111.36,130.41ZM100,145.34c-2.52,4.61-8.72,5.45-14.59,4s-7.89-9.81-6.21-14.5S88.72,131,94,131.33s7.22,2.77,7.22,2.77C103.06,135.86,102.47,140.73,100,145.34Zm30.19,4c-5.87,1.43-12.08.59-14.59-4s-3.11-9.48-1.26-11.24c0,0,1.93-2.43,7.21-2.77s13.17-1.17,14.85,3.53S136,147.94,130.15,149.36Z"/><path class="cls-2" d="M79.09,124.07c.4-3,2.51-13.54,12.12-13.54,10.08,0,15.18,4.51,16.09,5.41a.27.27,0,0,0,.34,0c1.36-.77,9.74-5.45,14.84-5.45,5.56,0,12.76,2.6,13.7,13.57h0a26.37,26.37,0,0,1,4.8.84c.21-2,1.28-15.76-7.29-18a.06.06,0,0,1,0-.11l4.94.17c1.47,1-5.88-16-30.69-15.07-20.41,2.26-20-3.34-23.44-6.82-7.61,7.7-9.26,18.21-5.21,25a.14.14,0,0,1-.08.21c-1.54.31-3.38-1.17-3.87-1.6a.09.09,0,0,0-.14.07l-.81,16A27.09,27.09,0,0,1,79.09,124.07Z"/></g></g></svg>